<?xml version="1.0" encoding="UTF-8"?>
<svg id="uuid-275ee809-a6bf-48a0-b110-6d77a51982fd" data-name="Layer 1" xmlns="http://www.w3.org/2000/svg" viewBox="0 0 412.99 396.95">
  <path d="M404.76,392.98c-8.65,5.87-19.29,5.39-28.4-2.47-35.35-30.49-70.03-61.76-105.76-91.8-43.82-36.84-88.44-72.75-132.74-109.03-2.39-1.95-5.06-3.54-7.59-5.3-.43.3-.85.61-1.27.91,1.44,3.27,2.89,6.54,4.32,9.81,18.4,42.19,39.03,83.06,69.07,118.48,6.75,7.95,5.95,17.38-.64,23.74-6.34,6.1-15.57,7.01-22.28.63-36.19-34.38-80.37-54.52-126.07-72.1-13.52-5.2-27.04-10.38-41.05-15.76-3.46,13.18,1.22,24.04,5.67,34.65,4.47,10.66,10.05,20.85,14.7,31.49-14.03-16.12-26.82-33.03-31.97-54.34-1.03-4.27-.9-9.06-.23-13.44,1.68-10.77,6.6-14.17,17.14-11.19,34.35,9.68,68.59,19.76,102.87,29.68.95.27,1.93.42,3.88.84-4.07-7.23-8.02-13.42-11.2-19.99-14.08-29.11-28.21-58.19-41.76-87.54-9.44-20.44,2.49-37.78,25.22-37.89,12.67-.07,23.78,4.81,34.59,10.51,31.59,16.67,60,38.09,87,61.19,42.53,36.35,84.22,73.71,126.25,110.66,1.57,1.37,3.12,2.76,5.99,3.51-.89-2.52-1.69-5.07-2.66-7.55-20.28-51.59-49.38-98.21-83.39-141.41-35.27-44.8-72.98-87.66-109.66-131.34-7.57-9-15.31-17.83-21.78-27.93,18.77,16.24,37.72,32.3,56.3,48.78,43.92,38.95,85.96,79.83,122.7,125.78,46,57.55,81.7,120.62,99.62,192.85,3.05,12.3,1.04,20.21-6.87,25.57Z" style="fill: #fff; stroke-width: 0px;"/>
</svg>